<?xml version="1.0" standalone="no"?>
<!DOCTYPE svg PUBLIC "-//W3C//DTD SVG 20010904//EN"
 "http://www.w3.org/TR/2001/REC-SVG-20010904/DTD/svg10.dtd">
<svg version="1.0" xmlns="http://www.w3.org/2000/svg"
 width="800.000000pt" height="800.000000pt" viewBox="0 0 800.000000 800.000000"
 preserveAspectRatio="xMidYMid meet">
<metadata>
Created by potrace 1.11, written by Peter Selinger 2001-2013
</metadata>
<g transform="translate(0.000000,800.000000) scale(0.100000,-0.100000)"
fill="#000000" stroke="none">
<path d="M2090 7993 c-422 -33 -852 -199 -1205 -466 -103 -78 -289 -259 -372
-362 -212 -263 -379 -601 -452 -915 -59 -259 -56 -121 -56 -2250 0 -2129 -3
-1991 56 -2250 73 -314 240 -652 452 -915 83 -103 269 -284 372 -362 258 -195
570 -344 865 -412 259 -59 121 -56 2250 -56 2129 0 1991 -3 2250 56 314 73
652 240 915 452 103 83 284 269 362 372 195 258 344 570 412 865 59 259 56
121 56 2245 0 1820 -1 1947 -18 2055 -61 392 -202 730 -435 1044 -96 130 -318
352 -448 448 -310 230 -639 368 -1034 435 -98 16 -234 17 -2015 19 -1050 0
-1930 -1 -1955 -3z m1181 -2573 c189 -19 356 -70 483 -147 72 -44 183 -147
233 -217 20 -28 38 -53 40 -55 1 -2 32 28 69 67 132 144 348 274 529 321 293
75 656 33 902 -105 270 -151 448 -426 519 -801 11 -62 18 -168 21 -360 l5
-273 -947 0 -948 0 6 -88 c31 -427 246 -733 587 -833 107 -31 349 -38 492 -14
181 29 346 95 514 205 43 28 81 47 85 43 9 -10 159 -333 159 -343 0 -13 -170
-119 -258 -161 -359 -172 -842 -203 -1217 -79 -180 60 -378 192 -487 325 l-53
64 -75 -78 c-216 -223 -521 -350 -912 -381 -278 -22 -521 23 -706 131 -90 54
-210 180 -259 274 -83 160 -117 350 -95 533 47 402 306 644 784 733 100 19
162 22 537 26 l423 5 -5 181 c-5 198 -16 259 -67 364 -57 117 -152 200 -280
244 -55 19 -87 23 -205 23 -88 1 -160 -4 -195 -13 -240 -60 -408 -217 -439
-411 -6 -34 -12 -64 -13 -65 -2 -1 -100 8 -218 21 -118 13 -223 23 -232 23
-44 2 -8 216 57 340 146 278 474 464 882 500 131 12 171 12 284 1z"/>
<path d="M4770 5015 c-212 -48 -385 -206 -494 -453 -28 -64 -69 -211 -81 -294
l-7 -48 702 0 703 0 -6 128 c-7 151 -32 257 -84 362 -70 140 -210 252 -368
295 -85 23 -283 29 -365 10z"/>
<path d="M2950 3833 c-219 -37 -399 -155 -472 -309 -32 -66 -33 -74 -33 -189
0 -113 2 -124 31 -185 55 -117 165 -202 306 -235 102 -24 277 -20 392 9 161
41 333 132 469 249 l57 49 0 309 0 309 -362 -1 c-200 -1 -374 -4 -388 -6z"/>
</g>
</svg>
